<svg xmlns="http://www.w3.org/2000/svg" viewBox="0 0 400 300">
  <defs>
    <linearGradient id="bpBg" x1="0%" y1="0%" x2="100%" y2="100%">
      <stop offset="0%" stop-color="#ffffff"/>
      <stop offset="100%" stop-color="#eef4ff"/>
    </linearGradient>
    <linearGradient id="forward" x1="0%" y1="0%" x2="100%" y2="0%">
      <stop offset="0%" stop-color="#93c5fd"/>
      <stop offset="100%" stop-color="#3b82f6"/>
    </linearGradient>
    <linearGradient id="backward" x1="100%" y1="0%" x2="0%" y2="0%">
      <stop offset="0%" stop-color="#fca5a5"/>
      <stop offset="100%" stop-color="#fcd34d"/>
    </linearGradient>
    <marker id="arrowHead" markerWidth="6" markerHeight="6" refX="5" refY="3" orient="auto" markerUnits="strokeWidth">
      <polygon points="0 0, 6 3, 0 6" fill="#3b82f6"/>
    </marker>
    <marker id="arrowHeadBack" markerWidth="6" markerHeight="6" refX="1" refY="3" orient="auto" markerUnits="strokeWidth">
      <polygon points="6 0, 0 3, 6 6" fill="#fbbf24"/>
    </marker>
  </defs>

  <rect width="400" height="300" fill="url(#bpBg)" rx="20" stroke="#d7e3f3" stroke-width="2"/>
  <rect x="40" y="40" width="320" height="220" rx="24" fill="#ffffff" stroke="#e0e8f5" stroke-width="2"/>
  <line x1="200" y1="60" x2="200" y2="260" stroke="#eef2ff" stroke-width="2" stroke-dasharray="6 8"/>

  <g fill="none" stroke="url(#forward)" stroke-width="3.5" stroke-linecap="round" marker-end="url(#arrowHead)">
    <path d="M80 90 C 140 70, 260 70, 320 90"/>
    <path d="M80 150 C 140 140, 260 140, 320 150"/>
    <path d="M80 210 C 140 230, 260 230, 320 210"/>
  </g>

  <g fill="none" stroke="url(#backward)" stroke-width="3.5" stroke-linecap="round" marker-end="url(#arrowHeadBack)">
    <path d="M320 100 C 260 120, 140 120, 80 100"/>
    <path d="M320 160 C 260 170, 140 170, 80 160"/>
    <path d="M320 220 C 260 200, 140 200, 80 220"/>
  </g>

  <g fill="#ffffff" stroke="#94a3b8" stroke-width="2">
    <circle cx="80" cy="90" r="18"/>
    <circle cx="80" cy="150" r="18"/>
    <circle cx="80" cy="210" r="18"/>
    <circle cx="320" cy="90" r="18"/>
    <circle cx="320" cy="150" r="18"/>
    <circle cx="320" cy="210" r="18"/>
  </g>

  <g fill="#fff9ed" stroke="#f59e0b" stroke-width="2.5">
    <circle cx="200" cy="115" r="22"/>
    <circle cx="200" cy="185" r="22"/>
  </g>

</svg>
