<svg xmlns="http://www.w3.org/2000/svg" viewBox="0 0 400 300">
  <defs>
    <linearGradient id="kmeansBg" x1="0%" y1="0%" x2="100%" y2="100%">
      <stop offset="0%" stop-color="#ffffff"/>
      <stop offset="100%" stop-color="#f0f4ff"/>
    </linearGradient>
  </defs>

  <rect width="400" height="300" rx="30" fill="url(#kmeansBg)" stroke="#d7e3f3" stroke-width="2"/>
  <rect x="45" y="45" width="310" height="210" rx="20" fill="#ffffff" stroke="#dde6f4" stroke-width="2"/>

  <g stroke="#e2e8f0" stroke-width="1">
    <line x1="70" y1="230" x2="330" y2="230"/>
    <line x1="70" y1="200" x2="330" y2="200"/>
    <line x1="70" y1="170" x2="330" y2="170"/>
    <line x1="70" y1="140" x2="330" y2="140"/>
    <line x1="70" y1="110" x2="330" y2="110"/>
    <line x1="70" y1="80" x2="330" y2="80"/>
    <line x1="100" y1="70" x2="100" y2="250"/>
    <line x1="140" y1="70" x2="140" y2="250"/>
    <line x1="180" y1="70" x2="180" y2="250"/>
    <line x1="220" y1="70" x2="220" y2="250"/>
    <line x1="260" y1="70" x2="260" y2="250"/>
    <line x1="300" y1="70" x2="300" y2="250"/>
  </g>

  <g stroke="#cbd5e1" stroke-width="2">
    <line x1="70" y1="250" x2="330" y2="250"/>
    <line x1="70" y1="70" x2="70" y2="250"/>
  </g>

  <g fill="#42c9ff" opacity="0.9">
    <circle cx="90" cy="210" r="8"/>
    <circle cx="130" cy="190" r="6"/>
    <circle cx="110" cy="160" r="7"/>
    <circle cx="150" cy="220" r="5"/>
  </g>

  <g fill="#ffb347" opacity="0.9">
    <circle cx="250" cy="120" r="7"/>
    <circle cx="280" cy="140" r="8"/>
    <circle cx="300" cy="110" r="6"/>
    <circle cx="320" cy="150" r="7"/>
  </g>

  <g fill="#9b7bff" opacity="0.9">
    <circle cx="210" cy="230" r="7"/>
    <circle cx="250" cy="210" r="6"/>
    <circle cx="280" cy="240" r="7"/>
    <circle cx="310" cy="220" r="6"/>
  </g>

  <g fill="none" stroke-width="3" stroke-dasharray="5 5" stroke-linecap="round">
    <circle cx="120" cy="190" r="55" stroke="#42c9ff"/>
    <circle cx="290" cy="130" r="50" stroke="#ffb347"/>
    <circle cx="260" cy="220" r="55" stroke="#9b7bff"/>
  </g>

  <g fill="#fefefe" stroke="#0f172a" stroke-width="2">
    <circle cx="120" cy="190" r="10"/>
    <circle cx="290" cy="130" r="10"/>
    <circle cx="260" cy="220" r="10"/>
  </g>

  <text x="310" y="270" fill="#94a3b8" font-family="'Inter', 'Helvetica', sans-serif" font-size="12" text-anchor="end">Feature 1</text>
  <text x="40" y="90" fill="#94a3b8" font-family="'Inter', 'Helvetica', sans-serif" font-size="12" transform="rotate(-90 40 90)">Feature 2</text>

  <text x="200" y="35" text-anchor="middle" fill="#0f172a" font-family="'Inter', 'Helvetica', sans-serif" font-size="24">k-means Clustering</text>
  <text x="200" y="285" text-anchor="middle" fill="#475569" font-family="'Inter', 'Helvetica', sans-serif" font-size="14" letter-spacing="2">group similar points</text>
</svg>
