<svg xmlns="http://www.w3.org/2000/svg" viewBox="0 0 400 300">
  <defs>
    <linearGradient id="hierarchicalBg" x1="0%" y1="0%" x2="100%" y2="100%">
      <stop offset="0%" stop-color="#ffffff"/>
      <stop offset="100%" stop-color="#f5f0ff"/>
    </linearGradient>
  </defs>

  <rect width="400" height="300" rx="30" fill="url(#hierarchicalBg)" stroke="#e3d7f3" stroke-width="2"/>

  <rect x="30" y="45" width="160" height="210" rx="20" fill="#ffffff" stroke="#dde6f4" stroke-width="2"/>
  <rect x="210" y="45" width="160" height="210" rx="20" fill="#ffffff" stroke="#dde6f4" stroke-width="2"/>

  <g stroke="#e2e8f0" stroke-width="1">
    <line x1="50" y1="230" x2="170" y2="230"/>
    <line x1="50" y1="180" x2="170" y2="180"/>
    <line x1="50" y1="130" x2="170" y2="130"/>
    <line x1="50" y1="80" x2="170" y2="80"/>
    <line x1="50" y1="230" x2="50" y2="70"/>
  </g>

  <g fill="#e74c3c" opacity="0.9">
    <circle cx="70" cy="210" r="6"/>
    <circle cx="90" cy="220" r="6"/>
    <circle cx="80" cy="195" r="6"/>
  </g>

  <g fill="#3498db" opacity="0.9">
    <circle cx="120" cy="140" r="6"/>
    <circle cx="140" cy="150" r="6"/>
    <circle cx="130" cy="125" r="6"/>
  </g>

  <g fill="#2ecc71" opacity="0.9">
    <circle cx="140" cy="90" r="6"/>
    <circle cx="160" cy="100" r="6"/>
    <circle cx="150" cy="80" r="6"/>
  </g>

  <g stroke="#34495e" stroke-width="2" fill="none">
    <path d="M 240 230 L 240 220 L 260 220 L 260 230"/>
    <path d="M 250 220 L 250 200"/>

    <path d="M 280 230 L 280 210 L 300 210 L 300 230"/>
    <path d="M 290 210 L 290 200"/>

    <path d="M 250 200 L 270 200 L 270 180"/>
    <path d="M 290 200 L 270 200"/>

    <path d="M 320 230 L 320 200 L 340 200 L 340 230"/>
    <path d="M 330 200 L 330 160"/>

    <path d="M 270 180 L 270 140"/>
    <path d="M 330 160 L 270 160 L 270 140"/>

    <path d="M 270 140 L 290 140 L 290 70"/>
  </g>

  <g fill="#e74c3c" opacity="0.9">
    <circle cx="240" cy="230" r="4"/>
    <circle cx="260" cy="230" r="4"/>
  </g>

  <g fill="#3498db" opacity="0.9">
    <circle cx="280" cy="230" r="4"/>
    <circle cx="300" cy="230" r="4"/>
  </g>

  <g fill="#2ecc71" opacity="0.9">
    <circle cx="320" cy="230" r="4"/>
    <circle cx="340" cy="230" r="4"/>
  </g>

  <g stroke="#e74c3c" stroke-width="2" stroke-dasharray="3 3">
    <line x1="230" y1="175" x2="350" y2="175"/>
  </g>

  <text x="165" y="265" fill="#94a3b8" font-family="'Inter', 'Helvetica', sans-serif" font-size="10" text-anchor="end">Scatter</text>
  <text x="345" y="265" fill="#94a3b8" font-family="'Inter', 'Helvetica', sans-serif" font-size="10" text-anchor="end">Dendrogram</text>

  <text x="200" y="30" text-anchor="middle" fill="#0f172a" font-family="'Inter', 'Helvetica', sans-serif" font-size="22">Hierarchical Clustering</text>
  <text x="200" y="290" text-anchor="middle" fill="#475569" font-family="'Inter', 'Helvetica', sans-serif" font-size="13" letter-spacing="2">nested structure</text>
</svg>
