<svg viewBox="0 0 120 80" xmlns="http://www.w3.org/2000/svg">
  <defs>
    <linearGradient id="attentionGradient" x1="0%" y1="0%" x2="100%" y2="100%">
      <stop offset="0%" style="stop-color:#667eea;stop-opacity:1" />
      <stop offset="100%" style="stop-color:#764ba2;stop-opacity:1" />
    </linearGradient>
  </defs>

  <!-- Background -->
  <rect width="120" height="80" fill="url(#attentionGradient)"/>

  <!-- Q, K, V matrices -->
  <g transform="translate(10,15)">
    <rect x="0" y="0" width="12" height="12" fill="rgba(74,144,226,0.8)" rx="1"/>

    <rect x="15" y="0" width="12" height="12" fill="rgba(124,179,66,0.8)" rx="1"/>

    <rect x="30" y="0" width="12" height="12" fill="rgba(244,67,54,0.8)" rx="1"/>
  </g>

  <!-- Attention heatmap -->
  <g transform="translate(55,20)">
    <rect x="0" y="0" width="8" height="8" fill="rgba(255,255,255,0.9)" rx="1"/>
    <rect x="10" y="0" width="8" height="8" fill="rgba(255,255,255,0.6)" rx="1"/>
    <rect x="20" y="0" width="8" height="8" fill="rgba(255,255,255,0.3)" rx="1"/>

    <rect x="0" y="10" width="8" height="8" fill="rgba(255,255,255,0.7)" rx="1"/>
    <rect x="10" y="10" width="8" height="8" fill="rgba(255,255,255,0.9)" rx="1"/>
    <rect x="20" y="10" width="8" height="8" fill="rgba(255,255,255,0.4)" rx="1"/>

    <rect x="0" y="20" width="8" height="8" fill="rgba(255,255,255,0.2)" rx="1"/>
    <rect x="10" y="20" width="8" height="8" fill="rgba(255,255,255,0.5)" rx="1"/>
    <rect x="20" y="20" width="8" height="8" fill="rgba(255,255,255,0.8)" rx="1"/>

  </g>

  <!-- Input tokens -->
  <g transform="translate(90,20)">
    <rect x="0" y="0" width="16" height="6" fill="rgba(255,255,255,0.9)" rx="2"/>

    <rect x="0" y="8" width="16" height="6" fill="rgba(255,255,255,0.7)" rx="2"/>

    <rect x="0" y="16" width="16" height="6" fill="rgba(255,255,255,0.5)" rx="2"/>

  </g>

  <!-- Arrows showing attention flow -->
  <path d="M45,25 Q50,20 55,25" stroke="rgba(255,255,255,0.6)" stroke-width="1.5" fill="none"/>
  <path d="M83,25 Q87,20 90,25" stroke="rgba(255,255,255,0.6)" stroke-width="1.5" fill="none"/>

  <!-- Attention scores visualization -->
  <g transform="translate(15,50)">
    <rect x="0" y="0" width="80" height="4" fill="rgba(255,255,255,0.2)" rx="2"/>
    <rect x="0" y="0" width="60" height="4" fill="rgba(255,255,0,0.8)" rx="2"/>
  </g>
</svg>