<svg xmlns="http://www.w3.org/2000/svg" viewBox="0 0 400 300">
  <defs>
    <linearGradient id="mabBg" x1="0%" y1="0%" x2="100%" y2="100%">
      <stop offset="0%" stop-color="#ffffff"/>
      <stop offset="100%" stop-color="#eef3ff"/>
    </linearGradient>
    <linearGradient id="armHighlight" x1="0%" y1="0%" x2="0%" y2="100%">
      <stop offset="0%" stop-color="#fde68a"/>
      <stop offset="100%" stop-color="#fbbf24"/>
    </linearGradient>
  </defs>

  <rect width="400" height="300" rx="24" fill="url(#mabBg)" stroke="#d7e3f3" stroke-width="2"/>

  <rect x="55" y="55" width="290" height="200" rx="26" fill="#ffffff" stroke="#e0e7f1" stroke-width="2"/>
  <rect x="70" y="70" width="260" height="130" rx="18" fill="#f8fafc" stroke="#d1d9e7" stroke-width="2"/>

  <g fill="#ffffff" stroke="#c4cedc" stroke-width="2">
    <rect x="85" y="85" width="70" height="100" rx="12"/>
    <rect x="165" y="85" width="70" height="100" rx="12"/>
    <rect x="245" y="85" width="70" height="100" rx="12"/>
  </g>

  <g stroke="#fbbf24" stroke-width="3" stroke-linecap="round">
    <line x1="120" y1="85" x2="120" y2="65"/>
    <line x1="200" y1="85" x2="200" y2="45"/>
    <line x1="280" y1="85" x2="280" y2="55"/>
  </g>
  <g fill="url(#armHighlight)" stroke="#fef3c7" stroke-width="2">
    <circle cx="120" cy="65" r="10"/>
    <circle cx="200" cy="45" r="10"/>
    <circle cx="280" cy="55" r="10"/>
  </g>

  <g fill="#fde68a" stroke="#f8c66c" stroke-width="2">
    <rect x="100" y="110" width="40" height="40" rx="8"/>
    <rect x="180" y="110" width="40" height="40" rx="8" fill="#fdba74" stroke="#fb923c"/>
    <rect x="260" y="110" width="40" height="40" rx="8" fill="#bfdbfe" stroke="#60a5fa"/>
  </g>


</svg>
