<svg width="400" height="300" xmlns="http://www.w3.org/2000/svg">
  <!-- Background -->
  <rect width="400" height="300" fill="#f8fafc"/>

  <!-- Title -->
  <text x="200" y="30" font-family="Arial, sans-serif" font-size="18" font-weight="bold" text-anchor="middle" fill="#1e293b">
    2D Classification
  </text>

  <!-- Chart background (white) -->
  <rect x="50" y="60" width="320" height="160" fill="white" stroke="#e0e0e0" stroke-width="1"/>

  <!-- Grid lines -->
  <line x1="50" y1="100" x2="370" y2="100" stroke="#f0f0f0" stroke-width="1"/>
  <line x1="50" y1="140" x2="370" y2="140" stroke="#f0f0f0" stroke-width="1"/>
  <line x1="50" y1="180" x2="370" y2="180" stroke="#f0f0f0" stroke-width="1"/>
  <line x1="130" y1="60" x2="130" y2="220" stroke="#f0f0f0" stroke-width="1"/>
  <line x1="210" y1="60" x2="210" y2="220" stroke="#f0f0f0" stroke-width="1"/>
  <line x1="290" y1="60" x2="290" y2="220" stroke="#f0f0f0" stroke-width="1"/>

  <!-- Axes -->
  <line x1="50" y1="220" x2="370" y2="220" stroke="#9e9e9e" stroke-width="1.5"/>
  <line x1="50" y1="60" x2="50" y2="220" stroke="#9e9e9e" stroke-width="1.5"/>

  <!-- Axis labels -->
  <text x="210" y="245" font-family="Arial, sans-serif" font-size="12" text-anchor="middle" fill="#666">x₁</text>
  <text x="30" y="145" font-family="Arial, sans-serif" font-size="12" text-anchor="middle" fill="#666" transform="rotate(-90 30 145)">x₂</text>

  <!-- Decision boundary (diagonal line from upper left to lower right) -->
  <line x1="80" y1="70" x2="350" y2="210" stroke="#9b59b6" stroke-width="3" stroke-dasharray="5,5"/>

  <!-- Class 0 points (red circles) - lower left blob -->
  <circle cx="75" cy="190" r="5" fill="#ff6b6b" stroke="#d63447" stroke-width="2"/>
  <circle cx="90" cy="185" r="5" fill="#ff6b6b" stroke="#d63447" stroke-width="2"/>
  <circle cx="65" cy="175" r="5" fill="#ff6b6b" stroke="#d63447" stroke-width="2"/>
  <circle cx="100" cy="180" r="5" fill="#ff6b6b" stroke="#d63447" stroke-width="2"/>
  <circle cx="80" cy="170" r="5" fill="#ff6b6b" stroke="#d63447" stroke-width="2"/>
  <circle cx="110" cy="175" r="5" fill="#ff6b6b" stroke="#d63447" stroke-width="2"/>
  <circle cx="95" cy="165" r="5" fill="#ff6b6b" stroke="#d63447" stroke-width="2"/>
  <circle cx="70" cy="160" r="5" fill="#ff6b6b" stroke="#d63447" stroke-width="2"/>
  <circle cx="85" cy="155" r="5" fill="#ff6b6b" stroke="#d63447" stroke-width="2"/>
  <circle cx="105" cy="160" r="5" fill="#ff6b6b" stroke="#d63447" stroke-width="2"/>
  <circle cx="120" cy="165" r="5" fill="#ff6b6b" stroke="#d63447" stroke-width="2"/>
  <circle cx="60" cy="185" r="5" fill="#ff6b6b" stroke="#d63447" stroke-width="2"/>
  <circle cx="90" cy="200" r="5" fill="#ff6b6b" stroke="#d63447" stroke-width="2"/>
  <circle cx="75" cy="205" r="5" fill="#ff6b6b" stroke="#d63447" stroke-width="2"/>
  <circle cx="115" cy="190" r="5" fill="#ff6b6b" stroke="#d63447" stroke-width="2"/>

  <!-- Class 1 points (teal squares) - upper right blob -->
  <rect x="280" y="85" width="10" height="10" rx="2" fill="#4ecdc4" stroke="#26a69a" stroke-width="2"/>
  <rect x="295" y="90" width="10" height="10" rx="2" fill="#4ecdc4" stroke="#26a69a" stroke-width="2"/>
  <rect x="310" y="95" width="10" height="10" rx="2" fill="#4ecdc4" stroke="#26a69a" stroke-width="2"/>
  <rect x="265" y="95" width="10" height="10" rx="2" fill="#4ecdc4" stroke="#26a69a" stroke-width="2"/>
  <rect x="290" y="105" width="10" height="10" rx="2" fill="#4ecdc4" stroke="#26a69a" stroke-width="2"/>
  <rect x="305" y="110" width="10" height="10" rx="2" fill="#4ecdc4" stroke="#26a69a" stroke-width="2"/>
  <rect x="275" y="110" width="10" height="10" rx="2" fill="#4ecdc4" stroke="#26a69a" stroke-width="2"/>
  <rect x="320" y="105" width="10" height="10" rx="2" fill="#4ecdc4" stroke="#26a69a" stroke-width="2"/>
  <rect x="285" y="120" width="10" height="10" rx="2" fill="#4ecdc4" stroke="#26a69a" stroke-width="2"/>
  <rect x="300" y="125" width="10" height="10" rx="2" fill="#4ecdc4" stroke="#26a69a" stroke-width="2"/>
  <rect x="315" y="120" width="10" height="10" rx="2" fill="#4ecdc4" stroke="#26a69a" stroke-width="2"/>
  <rect x="270" y="125" width="10" height="10" rx="2" fill="#4ecdc4" stroke="#26a69a" stroke-width="2"/>
  <rect x="330" y="90" width="10" height="10" rx="2" fill="#4ecdc4" stroke="#26a69a" stroke-width="2"/>
  <rect x="325" y="115" width="10" height="10" rx="2" fill="#4ecdc4" stroke="#26a69a" stroke-width="2"/>
  <rect x="260" y="80" width="10" height="10" rx="2" fill="#4ecdc4" stroke="#26a69a" stroke-width="2"/>

  <!-- Info box -->
  <rect x="60" y="255" width="280" height="35" fill="white" stroke="#e0e0e0" stroke-width="1" rx="4"/>
  <text x="200" y="275" font-family="Arial, sans-serif" font-size="11" text-anchor="middle" fill="#666">
    Decision boundary: θ₀ + θ₁x₁ + θ₂x₂ = 0
  </text>
  <text x="200" y="287" font-family="Arial, sans-serif" font-size="10" text-anchor="middle" fill="#999">
    Accuracy: 100% | 30 points classified
  </text>
</svg>
