<svg xmlns="http://www.w3.org/2000/svg" viewBox="0 0 400 300">
  <defs>
    <linearGradient id="nnBg" x1="0%" y1="0%" x2="100%" y2="100%">
      <stop offset="0%" stop-color="#ffffff"/>
      <stop offset="100%" stop-color="#edf2fb"/>
    </linearGradient>
    <pattern id="nnGrid" width="20" height="20" patternUnits="userSpaceOnUse">
      <path d="M 20 0 L 0 0 0 20" fill="none" stroke="#ecf0f7" stroke-width="1"/>
    </pattern>
  </defs>

  <rect width="400" height="300" fill="url(#nnBg)" rx="18" stroke="#d5deeb" stroke-width="2"/>
  <rect x="40" y="40" width="320" height="220" fill="#ffffff" stroke="#d7e3f3" stroke-width="2" rx="24"/>
  <rect x="40" y="40" width="320" height="220" fill="url(#nnGrid)" opacity="0.55" rx="24"/>

  <g stroke="#c7d5eb" stroke-width="3" stroke-linecap="round">
    <line x1="110" y1="100" x2="200" y2="90"/>
    <line x1="110" y1="100" x2="200" y2="150"/>
    <line x1="110" y1="160" x2="200" y2="90"/>
    <line x1="110" y1="160" x2="200" y2="150"/>
    <line x1="110" y1="220" x2="200" y2="90"/>
    <line x1="110" y1="220" x2="200" y2="150"/>

    <line x1="220" y1="90" x2="310" y2="130"/>
    <line x1="220" y1="150" x2="310" y2="130"/>
    <line x1="220" y1="90" x2="310" y2="200"/>
    <line x1="220" y1="150" x2="310" y2="200"/>
  </g>

  <g fill="#fff4e1" stroke="#f2c285" stroke-width="2.5">
    <circle cx="110" cy="100" r="18"/>
    <circle cx="110" cy="160" r="18"/>
    <circle cx="110" cy="220" r="18"/>
  </g>

  <g fill="#e3f5ff" stroke="#76c1e5" stroke-width="2.5">
    <circle cx="220" cy="90" r="16"/>
    <circle cx="220" cy="150" r="16"/>
  </g>

  <g fill="#f2e8ff" stroke="#c3a9eb" stroke-width="2.5">
    <circle cx="310" cy="130" r="20"/>
    <circle cx="310" cy="200" r="20"/>
  </g>

</svg>
