<svg xmlns="http://www.w3.org/2000/svg" viewBox="0 0 400 300">
  <!-- Background -->
  <rect width="400" height="300" fill="#f8f9fa"/>

  <!-- Title -->
  <text x="200" y="25" font-family="Arial, sans-serif" font-size="18" font-weight="bold" text-anchor="middle" fill="#343a40">Policy Iteration</text>

  <!-- Left grid label -->
  <text x="80" y="50" font-family="Arial, sans-serif" font-size="12" font-weight="600" text-anchor="start" fill="#495057">Value V(s)</text>

  <!-- Right grid label -->
  <text x="240" y="50" font-family="Arial, sans-serif" font-size="12" font-weight="600" text-anchor="start" fill="#495057">Policy π(s)</text>

  <!-- Left Grid - Values -->
  <g transform="translate(20, 60)">
    <!-- Row 0 -->
    <rect x="0" y="0" width="30" height="30" fill="#ffffff" stroke="#dee2e6" stroke-width="1.5"/>
    <text x="15" y="18" font-family="monospace" font-size="9" text-anchor="middle" fill="#007bff">1.2</text>

    <rect x="35" y="0" width="30" height="30" fill="#ffffff" stroke="#dee2e6" stroke-width="1.5"/>
    <text x="50" y="18" font-family="monospace" font-size="9" text-anchor="middle" fill="#007bff">2.3</text>

    <rect x="70" y="0" width="30" height="30" fill="#6c757d" stroke="#dee2e6" stroke-width="1.5"/>

    <rect x="105" y="0" width="30" height="30" fill="#ffffff" stroke="#dee2e6" stroke-width="1.5"/>
    <text x="120" y="18" font-family="monospace" font-size="9" text-anchor="middle" fill="#007bff">5.1</text>

    <rect x="140" y="0" width="30" height="30" fill="#ffc107" stroke="#dee2e6" stroke-width="1.5"/>
    <text x="155" y="18" font-family="monospace" font-size="8" font-weight="bold" text-anchor="middle" fill="#343a40">10</text>

    <!-- Row 1 -->
    <rect x="0" y="35" width="30" height="30" fill="#ffffff" stroke="#dee2e6" stroke-width="1.5"/>
    <text x="15" y="53" font-family="monospace" font-size="9" text-anchor="middle" fill="#007bff">0.8</text>

    <rect x="35" y="35" width="30" height="30" fill="#ffffff" stroke="#dee2e6" stroke-width="1.5"/>
    <text x="50" y="53" font-family="monospace" font-size="9" text-anchor="middle" fill="#007bff">1.5</text>

    <rect x="70" y="35" width="30" height="30" fill="#ffffff" stroke="#dee2e6" stroke-width="1.5"/>
    <text x="85" y="53" font-family="monospace" font-size="9" text-anchor="middle" fill="#007bff">2.8</text>

    <rect x="105" y="35" width="30" height="30" fill="#ffffff" stroke="#dee2e6" stroke-width="1.5"/>
    <text x="120" y="53" font-family="monospace" font-size="9" text-anchor="middle" fill="#007bff">4.2</text>

    <rect x="140" y="35" width="30" height="30" fill="#ffffff" stroke="#dee2e6" stroke-width="1.5"/>
    <text x="155" y="53" font-family="monospace" font-size="9" text-anchor="middle" fill="#007bff">6.3</text>

    <!-- Row 2 -->
    <rect x="0" y="70" width="30" height="30" fill="#ffffff" stroke="#dee2e6" stroke-width="1.5"/>
    <text x="15" y="88" font-family="monospace" font-size="9" text-anchor="middle" fill="#007bff">0.4</text>

    <rect x="35" y="70" width="30" height="30" fill="#ffffff" stroke="#dee2e6" stroke-width="1.5"/>
    <text x="50" y="88" font-family="monospace" font-size="9" text-anchor="middle" fill="#007bff">0.9</text>

    <rect x="70" y="70" width="30" height="30" fill="#6c757d" stroke="#dee2e6" stroke-width="1.5"/>
    <rect x="105" y="70" width="30" height="30" fill="#6c757d" stroke="#dee2e6" stroke-width="1.5"/>
    <rect x="140" y="70" width="30" height="30" fill="#6c757d" stroke="#dee2e6" stroke-width="1.5"/>

    <!-- Row 3 and 4 simplified -->
    <rect x="0" y="105" width="170" height="30" fill="#ffffff" stroke="#dee2e6" stroke-width="1.5"/>
    <rect x="0" y="140" width="170" height="30" fill="#ffffff" stroke="#dee2e6" stroke-width="1.5"/>
  </g>

  <!-- Right Grid - Policy Arrows -->
  <g transform="translate(180, 60)">
    <!-- Row 0 -->
    <rect x="0" y="0" width="30" height="30" fill="#ffffff" stroke="#dee2e6" stroke-width="1.5"/>
    <text x="15" y="20" font-family="Arial, sans-serif" font-size="16" font-weight="bold" text-anchor="middle" fill="#28a745">↑</text>

    <rect x="35" y="0" width="30" height="30" fill="#ffffff" stroke="#dee2e6" stroke-width="1.5"/>
    <text x="50" y="20" font-family="Arial, sans-serif" font-size="16" font-weight="bold" text-anchor="middle" fill="#28a745">→</text>

    <rect x="70" y="0" width="30" height="30" fill="#6c757d" stroke="#dee2e6" stroke-width="1.5"/>

    <rect x="105" y="0" width="30" height="30" fill="#ffffff" stroke="#dee2e6" stroke-width="1.5"/>
    <text x="120" y="20" font-family="Arial, sans-serif" font-size="16" font-weight="bold" text-anchor="middle" fill="#28a745">→</text>

    <rect x="140" y="0" width="30" height="30" fill="#ffc107" stroke="#dee2e6" stroke-width="1.5"/>

    <!-- Row 1 -->
    <rect x="0" y="35" width="30" height="30" fill="#ffffff" stroke="#dee2e6" stroke-width="1.5"/>
    <text x="15" y="55" font-family="Arial, sans-serif" font-size="16" font-weight="bold" text-anchor="middle" fill="#28a745">↑</text>

    <rect x="35" y="35" width="30" height="30" fill="#ffffff" stroke="#dee2e6" stroke-width="1.5"/>
    <text x="50" y="55" font-family="Arial, sans-serif" font-size="16" font-weight="bold" text-anchor="middle" fill="#28a745">↑</text>

    <rect x="70" y="35" width="30" height="30" fill="#ffffff" stroke="#dee2e6" stroke-width="1.5"/>
    <text x="85" y="55" font-family="Arial, sans-serif" font-size="16" font-weight="bold" text-anchor="middle" fill="#28a745">→</text>

    <rect x="105" y="35" width="30" height="30" fill="#ffffff" stroke="#dee2e6" stroke-width="1.5"/>
    <text x="120" y="55" font-family="Arial, sans-serif" font-size="16" font-weight="bold" text-anchor="middle" fill="#28a745">→</text>

    <rect x="140" y="35" width="30" height="30" fill="#ffffff" stroke="#dee2e6" stroke-width="1.5"/>
    <text x="155" y="55" font-family="Arial, sans-serif" font-size="16" font-weight="bold" text-anchor="middle" fill="#28a745">↑</text>

    <!-- Row 2 -->
    <rect x="0" y="70" width="30" height="30" fill="#ffffff" stroke="#dee2e6" stroke-width="1.5"/>
    <text x="15" y="90" font-family="Arial, sans-serif" font-size="16" font-weight="bold" text-anchor="middle" fill="#28a745">↑</text>

    <rect x="35" y="70" width="30" height="30" fill="#ffffff" stroke="#dee2e6" stroke-width="1.5"/>
    <text x="50" y="90" font-family="Arial, sans-serif" font-size="16" font-weight="bold" text-anchor="middle" fill="#28a745">←</text>

    <rect x="70" y="70" width="30" height="30" fill="#6c757d" stroke="#dee2e6" stroke-width="1.5"/>
    <rect x="105" y="70" width="30" height="30" fill="#6c757d" stroke="#dee2e6" stroke-width="1.5"/>
    <rect x="140" y="70" width="30" height="30" fill="#6c757d" stroke="#dee2e6" stroke-width="1.5"/>

    <!-- Row 3 and 4 simplified -->
    <rect x="0" y="105" width="170" height="30" fill="#ffffff" stroke="#dee2e6" stroke-width="1.5"/>
    <rect x="0" y="140" width="170" height="30" fill="#ffffff" stroke="#dee2e6" stroke-width="1.5"/>
  </g>

  <!-- Bottom description -->
  <text x="200" y="250" font-family="Arial, sans-serif" font-size="11" text-anchor="middle" fill="#495057">Learn optimal policies through iterative evaluation</text>
  <text x="200" y="265" font-family="Arial, sans-serif" font-size="11" text-anchor="middle" fill="#495057">and improvement</text>
</svg>
